# File created by Blade
# Date/Time:  Thu Jan 22 16:21:39 2015
# Frame Rate: 120.000 fps
#------------------------------------------------------
:FULLY-SPECIFIED
:DEGREES
1473
root -13.219293 33.827761 -6.496209 1.656076 6.899607 8.186062
RightUpLeg -26.527153 6.053506 11.453247
RightLeg 18.696540 -0.000000 -0.000000
RightFoot -2.866348 -23.969298 2.125714
RightToeBase 13.320601 -0.000000 -0.000000
LeftUpLeg 13.942077 1.538116 -31.500053
LeftLeg -4.492038 -0.000000 0.000000
LeftFoot -8.125592 0.298335 -4.572574
LeftToeBase 2.950835 -0.000000 -0.000000
Spine 21.662690 -15.712061 38.552562
RightShoulder 10.609446 -13.628175 -6.466761
RightArm 15.039701 11.134472 62.234406
RightForeArm 28.566379 -0.000000 17.458989
RightHand 11.256030 -0.000000 -20.842528
RightHandThumb1 -24.326973 -0.000000 -32.862282
LeftShoulder -23.533380 9.775930 46.477224
LeftArm 141.279968 -67.455314 -83.099433
LeftForeArm 31.252546 0.000000 42.329823
LeftHand -16.716655 -0.000000 12.781892
LeftHandThumb1 -26.253704 0.000000 33.147579
Head 25.199225 -3.254240 54.055452
1474
root -13.210889 33.824269 -6.506468 1.622550 6.897948 8.181369
RightUpLeg -26.519782 6.069622 11.441944
RightLeg 18.712339 -0.000000 -0.000000
RightFoot -2.897700 -24.001737 2.144699
RightToeBase 13.356295 -0.000000 -0.000000
LeftUpLeg 13.945202 1.571392 -31.507927
LeftLeg -4.468612 -0.000000 0.000000
LeftFoot -8.153759 0.298793 -4.555190
LeftToeBase 2.966920 -0.000000 -0.000000
Spine 21.705458 -15.737948 38.448110
RightShoulder 10.620194 -13.599249 -6.486271
RightArm 15.068320 11.065206 62.337267
RightForeArm 28.627366 0.000000 17.422141
RightHand 11.355862 0.000000 -20.757537
RightHandThumb1 -24.326973 -0.000000 -32.862282
LeftShoulder -23.540319 9.786477 46.474861
LeftArm 141.129916 -67.403685 -82.895009
LeftForeArm 31.360818 -0.000000 42.429124
LeftHand -16.639648 -0.000000 12.845251
LeftHandThumb1 -26.253704 0.000000 33.147579
Head 25.237777 -3.307436 53.926921
1475
root -13.204946 33.821091 -6.514722 1.577661 6.888092 8.175953
RightUpLeg -26.488141 6.085245 11.439866
RightLeg 18.710121 -0.000000 -0.000000
RightFoot -2.903204 -24.033562 2.188050
RightToeBase 13.229224 -0.000000 -0.000000
LeftUpLeg 13.972128 1.572380 -31.519591
LeftLeg -4.477115 -0.000000 0.000000
LeftFoot -8.160078 0.325960 -4.596056
LeftToeBase 2.975651 -0.000000 -0.000000
Spine 21.773333 -15.743989 38.324912
RightShoulder 10.614040 -13.617125 -6.472650
RightArm 15.135671 10.935607 62.373030
RightForeArm 28.738331 -0.000000 17.390637
RightHand 11.387581 0.000000 -20.697323
RightHandThumb1 -24.326973 -0.000000 -32.862282
LeftShoulder -23.536210 9.814982 46.482148
LeftArm 141.081894 -67.379891 -82.803190
LeftForeArm 31.405475 0.000000 42.575718
LeftHand -16.690872 -0.000000 12.594853
LeftHandThumb1 -26.253704 0.000000 33.147579
Head 25.253740 -3.379404 53.753191
1476
root -13.199518 33.818357 -6.523379 1.539319 6.876013 8.170640
RightUpLeg -26.455143 6.113057 11.431244
RightLeg 18.700611 -0.000000 -0.000000
RightFoot -2.938460 -24.075532 2.192967
RightToeBase 13.362439 -0.000000 -0.000000
LeftUpLeg 13.984731 1.626734 -31.520901
LeftLeg -4.461545 -0.000000 0.000000
LeftFoot -8.186618 0.286333 -4.647880
LeftToeBase 3.237963 -0.000000 -0.000000
Spine 21.824267 -15.743060 38.204050
RightShoulder 10.619502 -13.688097 -6.479262
RightArm 15.261946 10.987435 62.481398
RightForeArm 28.647189 -0.000000 17.359020
RightHand 11.336652 -0.000000 -20.597138
RightHandThumb1 -24.326973 -0.000000 -32.862282
LeftShoulder -23.500044 9.832690 46.473630
LeftArm 140.941731 -67.424342 -82.607475
LeftForeArm 31.343206 -0.000000 42.686943
LeftHand -16.747686 -0.000000 12.551935
LeftHandThumb1 -26.253704 0.000000 33.147579
Head 25.300533 -3.452633 53.559105
1477
root -13.194723 33.817231 -6.532145 1.509820 6.890645 8.158047
RightUpLeg -26.424213 6.083428 11.443206
RightLeg 18.661613 -0.000000 -0.000000
RightFoot -2.945644 -24.066348 2.214214
RightToeBase 13.400354 -0.000000 -0.000000
LeftUpLeg 14.008504 1.617159 -31.517329
LeftLeg -4.475066 -0.000000 0.000000
LeftFoot -8.190290 0.310225 -4.664529
LeftToeBase 3.100843 -0.000000 -0.000000
Spine 21.841327 -15.739982 38.110681
RightShoulder 10.602990 -13.761433 -6.498770
RightArm 15.333668 10.743197 62.483371
RightForeArm 28.796038 -0.000000 17.399165
RightHand 11.312888 -0.000000 -20.677393
RightHandThumb1 -24.326973 -0.000000 -32.862282
LeftShoulder -23.527970 9.874734 46.423348
LeftArm 140.910988 -67.340539 -82.513604
LeftForeArm 31.407488 -0.000000 42.769459
LeftHand -16.719420 0.000000 12.547252
LeftHandThumb1 -26.253704 0.000000 33.147579
Head 25.309332 -3.403302 53.483272
